HIERARCHY
ROOT joint_0
{
	OFFSET 0.000000 0.000000 0.000000
	CHANNELS 6 Xposition Yposition Zposition Zrotation Yrotation Xrotation 
	JOINT joint_1
	{
		OFFSET 11.612000 -0.419000 106.198000
		CHANNELS 3 Zrotation Yrotation Xrotation
		JOINT joint_2
		{
			OFFSET -1.708000 -1.022000 97.564090
			CHANNELS 3 Zrotation Yrotation Xrotation
			JOINT joint_3
			{
				OFFSET -4.121000 -1.538000 97.375000
				CHANNELS 3 Zrotation Yrotation Xrotation
				JOINT joint_4
				{
					OFFSET 5.442000 -2.123000 132.795900
					CHANNELS 3 Zrotation Yrotation Xrotation
					JOINT joint_5
					{
						OFFSET 21.935000 0.195000 82.975100
						CHANNELS 3 Zrotation Yrotation Xrotation
						End Site
						{
							OFFSET 0.000000 0.000000 0.000000
						}
					}
				}
				JOINT joint_6
				{
					OFFSET 4.262000 -30.048000 73.899900
					CHANNELS 3 Zrotation Yrotation Xrotation
					JOINT joint_7
					{
						OFFSET 9.731000 -136.810010 -21.963010
						CHANNELS 3 Zrotation Yrotation Xrotation
						JOINT joint_8
						{
							OFFSET 33.360000 -35.709000 -267.597900
							CHANNELS 3 Zrotation Yrotation Xrotation
							JOINT joint_9
							{
								OFFSET 36.156000 -29.759000 -240.558040
								CHANNELS 3 Zrotation Yrotation Xrotation
								End Site
								{
									OFFSET 0.000000 0.000000 0.000000
								}
							}
						}
					}
				}
				JOINT joint_10
				{
					OFFSET 2.027000 27.734000 74.914920
					CHANNELS 3 Zrotation Yrotation Xrotation
					JOINT joint_11
					{
						OFFSET -5.183000 136.784000 -23.604980
						CHANNELS 3 Zrotation Yrotation Xrotation
						JOINT joint_12
						{
							OFFSET 29.806000 37.229000 -267.809940
							CHANNELS 3 Zrotation Yrotation Xrotation
							JOINT joint_13
							{
								OFFSET 36.890000 46.524990 -237.772030
								CHANNELS 3 Zrotation Yrotation Xrotation
								End Site
								{
									OFFSET 0.000000 0.000000 0.000000
								}
							}
						}
					}
				}
			}
		}
	}
	JOINT joint_14
	{
		OFFSET -7.290000 -102.873990 -124.314940
		CHANNELS 3 Zrotation Yrotation Xrotation
		JOINT joint_15
		{
			OFFSET -15.466000 -19.909010 -438.533020
			CHANNELS 3 Zrotation Yrotation Xrotation
			JOINT joint_16
			{
				OFFSET -26.899000 -18.922000 -464.797000
				CHANNELS 3 Zrotation Yrotation Xrotation
				JOINT joint_17
				{
					OFFSET 179.329000 -12.011000 -84.174000
					CHANNELS 3 Zrotation Yrotation Xrotation
					End Site
					{
						OFFSET 0.000000 0.000000 0.000000
					}
				}
			}
		}
	}
	JOINT joint_18
	{
		OFFSET -6.225000 101.546000 -125.479980
		CHANNELS 3 Zrotation Yrotation Xrotation
		JOINT joint_19
		{
			OFFSET -13.973000 7.996000 -438.963010
			CHANNELS 3 Zrotation Yrotation Xrotation
			JOINT joint_20
			{
				OFFSET -44.294000 5.716000 -463.813970
				CHANNELS 3 Zrotation Yrotation Xrotation
				JOINT joint_21
				{
					OFFSET 178.505000 -4.689000 -85.139000
					CHANNELS 3 Zrotation Yrotation Xrotation
					End Site
					{
						OFFSET 0.000000 0.000000 0.000000
					}
				}
			}
		}
	}
}
MOTION
Frames: 7
Frame Time: 0.016667
-62.323000 -32.460000 1129.390010 -0.341114 -2.515020 0.728044 -0.719995 1.320876 0.045802 -0.739986 -0.308444 -0.120021 -0.721806 0.350659 0.065649 -0.033022 1.019424 0.118225 0.000000 0.000000 0.000000 -2.388925 0.240488 1.872574 -0.080244 -0.339381 -1.027305 0.195477 -1.122126 0.345795 0.000000 0.000000 0.000000 -0.924464 -1.101143 -0.881961 -0.201715 -1.006949 -1.729332 0.408847 1.036544 1.297774 0.000000 0.000000 0.000000 2.475614 2.983416 -1.196044 2.493959 1.880516 -0.074730 2.622472 -2.764035 1.045785 0.000000 0.000000 0.000000 2.265147 2.298114 0.941769 2.239668 0.016608 0.541180 2.198630 0.452389 1.057215 0.000000 0.000000 0.000000 
-61.086000 -32.966000 1130.230960 -0.127197 -2.207098 0.746752 -0.366808 1.396284 -0.020882 -0.384698 -0.194330 -0.090557 -0.373639 0.158208 0.041871 -0.036063 0.830813 0.132161 0.000000 0.000000 0.000000 -3.728751 0.949231 3.143560 -0.326754 -0.047085 -3.087421 0.545264 -1.887547 1.961293 0.000000 0.000000 0.000000 -1.670251 -1.356442 -1.334048 -0.146951 -1.082312 -1.062789 0.383056 1.080156 1.082367 0.000000 0.000000 0.000000 2.424328 2.767757 -1.210486 2.433087 1.825993 -0.055452 2.562494 -2.774224 1.016969 0.000000 0.000000 0.000000 2.214470 2.000920 0.988952 2.198379 -0.003270 0.438098 2.150040 0.507888 1.035671 0.000000 0.000000 0.000000 
-58.154000 -33.720000 1131.057980 0.307682 -1.604804 0.765317 -0.036535 1.632630 -0.098611 -0.054694 -0.189298 -0.051946 -0.047148 0.103805 0.020656 -0.072714 -0.109763 0.275058 0.000000 0.000000 0.000000 -4.144080 1.889994 3.229955 -0.486981 0.793202 -3.864108 0.963160 -3.422979 3.364958 0.000000 0.000000 0.000000 -2.058943 -1.435080 -1.367361 -0.173241 -1.081688 -0.678975 0.162363 0.484078 0.430439 0.000000 0.000000 0.000000 2.315258 2.466358 -1.195164 2.323364 1.550375 -0.085354 2.440545 -2.740861 0.962039 0.000000 0.000000 0.000000 2.063379 1.533375 1.055794 2.056669 -0.203118 0.338570 2.008567 0.635089 0.971821 0.000000 0.000000 0.000000 
-52.798000 -34.966000 1131.832030 1.034508 -0.520753 0.788157 0.262817 2.205433 -0.152856 0.240670 -0.360037 0.013098 0.249108 0.269583 -0.016186 -0.151379 -2.509203 0.571359 0.000000 0.000000 0.000000 -2.931530 3.303797 1.004641 -0.500052 2.709535 -1.856097 1.468465 -6.790180 4.156977 0.000000 0.000000 0.000000 -1.564788 -1.261746 -0.756630 -0.335432 -1.042793 -0.624293 -0.422503 -1.267325 -1.119638 0.000000 0.000000 0.000000 2.139921 2.061140 -1.093516 2.173737 0.788867 -0.268851 2.244384 -2.570576 0.881468 0.000000 0.000000 0.000000 1.755432 0.828159 1.163976 1.755534 -0.802145 0.259144 1.723724 0.942529 0.844328 0.000000 0.000000 0.000000 
-45.747000 -36.460000 1132.590940 1.979906 0.831398 0.833866 0.511752 2.976291 -0.148714 0.488052 -0.578774 0.125860 0.494383 0.487521 -0.106627 -0.225837 -5.770228 0.729001 0.000000 0.000000 0.000000 -1.167913 4.938038 -2.109876 -0.491905 5.097895 1.533015 1.881599 -10.965391 4.451185 0.000000 0.000000 0.000000 -0.545018 -0.947842 -0.020372 -0.541791 -0.960417 -0.392044 -1.233543 -3.542207 -3.369815 0.000000 0.000000 0.000000 1.907642 1.599082 -0.948933 1.979763 -0.200786 -0.523313 1.990018 -2.316092 0.778902 0.000000 0.000000 0.000000 1.348701 -0.015509 1.306873 1.355683 -1.596391 0.170616 1.349243 1.373294 0.677238 0.000000 0.000000 0.000000 
-38.027000 -37.517000 1133.152950 3.063637 2.037364 0.908165 0.601454 3.557564 -0.101876 0.583743 -0.684675 0.203093 0.585544 0.573696 -0.191577 -0.292761 -8.458698 0.697051 0.000000 0.000000 0.000000 0.055298 6.142813 -4.117399 -0.533744 6.870718 3.853245 2.048546 -13.431406 4.650196 0.000000 0.000000 0.000000 0.011234 -0.484351 0.438057 -0.676578 -0.609411 0.093317 -1.950067 -5.362602 -5.384259 0.000000 0.000000 0.000000 1.606652 1.145857 -0.883455 1.691472 -0.809096 -0.600380 1.676495 -2.187661 0.639894 0.000000 0.000000 0.000000 0.938571 -0.839217 1.439649 0.958311 -2.084203 0.042094 0.969286 1.693917 0.504799 0.000000 0.000000 0.000000 
-29.532000 -37.745000 1133.349980 4.373696 3.029478 1.018551 0.405714 3.650931 -0.077164 0.398473 -0.691451 0.164735 0.403256 0.577752 -0.164586 -0.345328 -10.130680 0.618904 0.000000 0.000000 0.000000 1.074478 6.799243 -4.433573 -0.638596 7.762502 3.970988 2.043215 -13.310640 5.226517 0.000000 0.000000 0.000000 -0.428046 0.345167 0.648116 -0.674308 0.317423 0.624679 -2.470199 -6.747387 -6.796705 0.000000 0.000000 0.000000 1.197077 0.749036 -1.023511 1.255619 -0.951496 -0.274181 1.268667 -2.256051 0.443545 0.000000 0.000000 0.000000 0.509745 -1.575750 1.547131 0.548257 -2.248161 -0.164530 0.563823 1.857061 0.316431 0.000000 0.000000 0.000000 
